<svg xmlns="http://www.w3.org/2000/svg" xmlns:xlink="http://www.w3.org/1999/xlink" version="1.1">
<defs>
    <symbol id="deletefile" viewBox="0 0 24 24">
        <g fill="none" stroke="#000" stroke-linecap="round" stroke-linejoin="round" stroke-width="2">
            <rect height="20" rx="2" width="20" x="2" y="2"/>
            <path d="m14.5 9.5-5 5"/>
            <path d="m14.5 14.5-5-5"/>
        </g>
    </symbol>
    <symbol id="addfolder" viewBox="0 0 24 24">
        <path d="M2,18.8V5.3A2.3,2.3,0,0,1,4.3,3H9.6a1.1,1.1,0,0,1,.8.4l2.8,3.2a1.1,1.1,0,0,0,.8.4h5.6A2.2,2.2,0,0,1,22,9.2v9.7A2.2,2.2,0,0,1,19.8,21H4.2A2.2,2.2,0,0,1,2,18.8Z" fill="none" stroke="#000000" stroke-linecap="round" stroke-linejoin="round" stroke-width="2"/>
    </symbol>
    <symbol id="addfile" viewBox="0 0 24 24">
        <g fill="none" stroke="#000" stroke-linecap="round" stroke-linejoin="round" stroke-width="2">
            <path d="m18 22h-12a2 2 0 0 1 -2-2v-16a2 2 0 0 1 2-2h7.1a2 2 0 0 1 1.5.6l4.9 5.2a2 2 0 0 1 .5 1.4v10.8a2 2 0 0 1 -2 2z"/>
            <path d="m12 17v-6"/>
            <path d="m9 14h6"/>
        </g>
    </symbol>
    <symbol id="plus" viewBox="0 0 24 24">
        <g fill="none" stroke="#000" stroke-linecap="round" stroke-linejoin="round" stroke-width="2">
            <path d="m12 19v-14"/>
            <path d="m5 12h14"/>
        </g>
    </symbol>
    <symbol id="file" viewBox="0 0 24 24">
        <g fill="none" stroke="#000" stroke-linecap="round" stroke-linejoin="round" stroke-width="2">
            <path d="m18 22h-12a2 2 0 0 1 -2-2v-16a2 2 0 0 1 2-2h7.1a2 2 0 0 1 1.5.6l4.9 5.2a2 2 0 0 1 .5 1.4v10.8a2 2 0 0 1 -2 2z"/><path d="m7.9 17.5h8.2"/>
            <path d="m7.9 13.5h8.2"/>
            <path d="m8 9.5h5"/>
        </g>
    </symbol>

</defs>
</svg>