<svg xmlns="http://www.w3.org/2000/svg" xmlns:xlink="http://www.w3.org/1999/xlink" version="1.1">
<defs>
    <symbol id="deletefile" viewBox="0 0 24 24">
        <g fill="none" stroke="#000" stroke-linecap="round" stroke-linejoin="round" stroke-width="2">
            <rect height="20" rx="2" width="20" x="2" y="2"/>
            <path d="m14.5 9.5-5 5"/>
            <path d="m14.5 14.5-5-5"/>
        </g>
    </symbol>
    <symbol id="addfolder" viewBox="0 0 24 24">
        <path d="m12 16v-3m0 0v-3m0 3h-3m3 0h3m-12-7v10.8c0 1.1201 0 1.6798.21799 2.1076.19174.3763.49748.6829.87381.8746.4274.2178.98719.2178 2.10511.2178h11.60619c1.1179 0 1.6769 0 2.1043-.2178.3763-.1917.6831-.4981.8748-.8744.218-.4278.218-.9879.218-2.108v-7.60002c0-1.12011 0-1.68016-.218-2.10798-.1917-.37633-.4983-.68207-.8746-.87381-.4278-.21799-.9875-.21799-2.1076-.21799h-5.8m-9 0h9m-9 0c0-1.10457.89543-2 2-2h3.67452c.48918 0 .73434 0 .96452.05526.20407.04899.39886.13.57776.23966.2018.12365.375.2969.7207.64258l1.0625 1.0625" stroke="#000" stroke-linecap="round" stroke-linejoin="round" stroke-width="2" fill="none" />
    </symbol>
    <symbol id="addfile" viewBox="0 0 24 24">
        <g fill="none" stroke="#000" stroke-linecap="round" stroke-linejoin="round" stroke-width="2">
            <path d="m18 22h-12a2 2 0 0 1 -2-2v-16a2 2 0 0 1 2-2h7.1a2 2 0 0 1 1.5.6l4.9 5.2a2 2 0 0 1 .5 1.4v10.8a2 2 0 0 1 -2 2z"/>
            <path d="m12 17v-6"/>
            <path d="m9 14h6"/>
        </g>
    </symbol>
    <symbol id="plus" viewBox="0 0 24 24">
        <g fill="none" stroke="#000" stroke-linecap="round" stroke-linejoin="round" stroke-width="2">
            <path d="m12 19v-14"/>
            <path d="m5 12h14"/>
        </g>
    </symbol>
    <symbol id="file" viewBox="0 0 24 24">
        <g fill="none" stroke="#000" stroke-linecap="round" stroke-linejoin="round" stroke-width="2">
            <path d="m18 22h-12a2 2 0 0 1 -2-2v-16a2 2 0 0 1 2-2h7.1a2 2 0 0 1 1.5.6l4.9 5.2a2 2 0 0 1 .5 1.4v10.8a2 2 0 0 1 -2 2z"/><path d="m7.9 17.5h8.2"/>
            <path d="m7.9 13.5h8.2"/>
            <path d="m8 9.5h5"/>
        </g>
    </symbol>
    <symbol id="edit" viewBox="0 0 24 24">
        <g fill="none" stroke="#000" stroke-linecap="round" stroke-linejoin="round" stroke-width="2">
            <path d="m20 16v4a2 2 0 0 1 -2 2h-14a2 2 0 0 1 -2-2v-14a2 2 0 0 1 2-2h4"/>
            <path d="m12.5 15.8 9.5-9.6-4.2-4.2-9.5 9.5-.3 4.5z"/>
        </g>
    </symbol>

</defs>
</svg>