<svg xmlns="http://www.w3.org/2000/svg" xmlns:xlink="http://www.w3.org/1999/xlink" version="1.1">
<defs>
    <symbol id="deletefile" viewBox="0 0 24 24">
        <g fill="none" stroke="#000" stroke-linecap="round" stroke-linejoin="round" stroke-width="2">
            <rect height="20" rx="2" width="20" x="2" y="2"/>
            <path d="m14.5 9.5-5 5"/>
            <path d="m14.5 14.5-5-5"/>
        </g>
    </symbol>
    <symbol id="addfolder" viewBox="0 0 24 24">
        <path d="m12 16v-3m0 0v-3m0 3h-3m3 0h3m-12-7v10.8c0 1.1201 0 1.6798.21799 2.1076.19174.3763.49748.6829.87381.8746.4274.2178.98719.2178 2.10511.2178h11.60619c1.1179 0 1.6769 0 2.1043-.2178.3763-.1917.6831-.4981.8748-.8744.218-.4278.218-.9879.218-2.108v-7.60002c0-1.12011 0-1.68016-.218-2.10798-.1917-.37633-.4983-.68207-.8746-.87381-.4278-.21799-.9875-.21799-2.1076-.21799h-5.8m-9 0h9m-9 0c0-1.10457.89543-2 2-2h3.67452c.48918 0 .73434 0 .96452.05526.20407.04899.39886.13.57776.23966.2018.12365.375.2969.7207.64258l1.0625 1.0625" stroke="#000" stroke-linecap="round" stroke-linejoin="round" stroke-width="2" fill="none" />
    </symbol>
    <symbol id="addfile" viewBox="0 0 24 24">
        <g fill="none" stroke="#000" stroke-linecap="round" stroke-linejoin="round" stroke-width="2">
            <path d="m18 22h-12a2 2 0 0 1 -2-2v-16a2 2 0 0 1 2-2h7.1a2 2 0 0 1 1.5.6l4.9 5.2a2 2 0 0 1 .5 1.4v10.8a2 2 0 0 1 -2 2z"/>
            <path d="m12 17v-6"/>
            <path d="m9 14h6"/>
        </g>
    </symbol>
    <symbol id="plus" viewBox="0 0 24 24">
        <g fill="none" stroke="#000" stroke-linecap="round" stroke-linejoin="round" stroke-width="2">
            <path d="m12 19v-14"/>
            <path d="m5 12h14"/>
        </g>
    </symbol>
    <symbol id="folder" viewBox="0 0 24 24">
        <path d="m2 18.8v-13.5a2.3 2.3 0 0 1 2.3-2.3h5.3a1.1 1.1 0 0 1 .8.4l2.8 3.2a1.1 1.1 0 0 0 .8.4h5.6a2.2 2.2 0 0 1 2.4 2.2v9.7a2.2 2.2 0 0 1 -2.2 2.1h-15.6a2.2 2.2 0 0 1 -2.2-2.2z" fill="none" stroke="#000" stroke-linecap="round" stroke-linejoin="round" stroke-width="2"/>
    </symbol>
    <symbol id="file" viewBox="0 0 24 24">
        <g fill="none" stroke="#000" stroke-linecap="round" stroke-linejoin="round" stroke-width="2">
            <path d="m18 22h-12a2 2 0 0 1 -2-2v-16a2 2 0 0 1 2-2h7.1a2 2 0 0 1 1.5.6l4.9 5.2a2 2 0 0 1 .5 1.4v10.8a2 2 0 0 1 -2 2z"/><path d="m7.9 17.5h8.2"/>
            <path d="m7.9 13.5h8.2"/>
            <path d="m8 9.5h5"/>
        </g>
    </symbol>
    <symbol id="edit" viewBox="0 0 24 24">
        <g fill="none" stroke="#000" stroke-linecap="round" stroke-linejoin="round" stroke-width="2">
            <path d="m20 16v4a2 2 0 0 1 -2 2h-14a2 2 0 0 1 -2-2v-14a2 2 0 0 1 2-2h4"/>
            <path d="m12.5 15.8 9.5-9.6-4.2-4.2-9.5 9.5-.3 4.5z"/>
        </g>
    </symbol>
    <symbol id="folders-only" viewBox="0 0 24 24">
        <path d="m3 11v8.4c0 .5601 0 .8396.10899 1.0535.09588.1882.24875.3417.43691.4376.2137.1089.49311.1089 1.05207.1089h10.80343c.5589 0 .8394 0 1.0531-.1089.1882-.0959.3403-.249.4361-.4372.109-.2139.109-.4939.109-1.054l.0015-4.3993m-14.0011-4.0006h7m-7 0v-.3999c0-.56 0-.84031.10899-1.0542.09587-.18816.24875-.34104.43691-.43692.21387-.10897.49385-.10897 1.05371-.10897l2.40039-.00001m3 2h5.4c.56 0 .842 0 1.056.109.1881.0959.3388.2487.4346.4369.109.2139.109.4939.109 1.054l.0015 2.4007m-7.0011-4.0006-1.0752-1.38232c-.17619-.22653-.26463-.34025-.375-.42188-.09779-.07233-.20677-.12601-.3239-.1588-.13217-.03699-.2771-.03699-.56399-.03699l-.66191-.00001m0-4h12.4c.5601 0 .842 0 1.0559.10899.1882.09588.3389.24875.4347.43691.109.21391.109.49394.109 1.05399v6.80001c0 .5601 0 .8401-.109 1.054-.0958.1882-.2474.3413-.4355.4372-.2137.1089-.4938.1089-1.0528.1089l-2.4012.0006m-10.0011-10.0006v4m0-4v-.3999c0-.55996 0-.84031.10899-1.0542.09587-.18816.24875-.34103.43691-.43691.21391-.10899.49366-.10899 1.05371-.10899h3.06189c.2872 0 .4298 0 .5621.03701.1171.03279.2284.08646.3262.15879.1104.08163.1988.19535.375.42188l1.0751 1.3823" stroke="#000" stroke-linecap="round" stroke-linejoin="round" stroke-width="2" fill="none"/>
    </symbol>
</defs>
</svg>